Coordinates
version=1
nRows=10
nColumns=33
inDegrees=yes

Units are S.I. units (second, meters, Newtons, ...)
Angles are in degrees.

endheader
time	ground_thorax_rot_x	ground_thorax_rot_y	ground_thorax_rot_z	ground_thorax_tx	ground_thorax_ty	ground_thorax_tz	clav_prot_r	clav_elev_r	scapula_abduction_r	scapula_elevation_r	scapula_upward_rot_r	scapula_winging_r	shoulder_elv_r	plane_of_elev_r	axial_rot_r	elbow_flexion_r	pro_sup_r	wrist_flex_r	wrist_dev_r	clav_prot_l	clav_elev_l	scapula_abduction_l	scapula_elevation_l	scapula_upward_rot_l	scapula_winging_l	shoulder_elv_l	plane_of_elev_l	axial_rot_l	elbow_flexion_l	pro_sup_l	wrist_flex_l	wrist_dev_l
      1.95000000	     -3.90759647	      4.21827040	      9.82402231	     -0.10062737	      1.02515457	      0.00532061	     15.50183606	    -11.91828347	     36.88948992	    -11.00253161	     18.21075038	    -10.73674636	     -7.93070431	    -58.88498491	    119.90961782	    -51.79763013	   -162.67053248	      8.07001619	      2.86901433	     20.31478868	     -9.98775887	    -29.71681909	     -7.83687611	    -26.51198639	      8.04194552	     61.08761768	     -2.89880084	     14.14061216	     30.95001887	     15.36208595	     16.81595264	    -10.28662827
      1.96000000	     -3.73309353	      4.10918975	      9.93714433	     -0.10097552	      1.02479229	      0.00573314	     15.33264874	    -11.61926298	     36.22532663	    -10.56125603	     17.57823483	    -10.66222513	     -8.59310605	    -59.32786859	    119.91162937	    -53.54927017	   -162.98448999	      8.51127176	      2.83811569	     20.07917778	     -9.65809544	    -29.34338478	     -8.37277140	    -27.00969560	      7.85427465	     60.98152250	     -3.44709098	     14.36646079	     32.73700114	     15.10386540	     16.89559176	    -10.61497471
      1.97000000	     -3.88137875	      4.17043654	     10.16715591	     -0.10120040	      1.02605398	      0.00584209	     15.00140778	    -12.76582123	     34.91572286	    -11.21047458	     16.42216670	     -9.49849619	     -9.57742958	    -60.40077089	    119.12375159	    -55.30228593	   -166.53589389	      9.04026042	      2.43147557	     19.59910689	     -9.83019612	    -28.52446795	     -8.48208865	    -27.51652183	      7.32899093	     61.72127616	     -4.83616744	     13.48724577	     34.81148486	     13.94276163	     18.36330024	    -10.22652092
      1.98000000	     -3.73571408	      4.07392016	     10.25578795	     -0.10151564	      1.02542077	      0.00618176	     14.83274639	    -12.38804202	     34.21735522	    -10.66918495	     15.71864287	     -9.46612083	    -10.22714776	    -60.83252744	    119.16069337	    -57.10884340	   -166.93284460	      9.51126596	      2.31676059	     19.38126557	     -9.37374819	    -28.19417792	     -9.14609997	    -28.04215690	      7.17671857	     61.63174984	     -5.44149284	     13.41826231	     36.77614344	     13.60451197	     18.41382014	    -10.53456617
      1.99000000	     -3.75815739	      4.15736838	     10.34460050	     -0.10195719	      1.02576236	      0.00649063	     14.73405770	    -12.82415038	     33.25161548	    -10.64827159	     14.44550179	     -8.88501937	    -10.89166379	    -61.34437698	    118.45528947	    -58.90184373	   -168.74423688	     10.19765511	      1.61760814	     19.09434165	     -9.32746551	    -27.72245808	     -9.43909691	    -28.54429775	      6.87882362	     62.17758755	     -6.67975154	     12.42597231	     39.01230138	     12.64124983	     18.85743496	    -10.39963641
      2.00000000	     -3.76356215	      4.17516759	     10.33117515	     -0.10204087	      1.02607805	      0.00660920	     14.33852908	    -13.25826941	     32.05930481	    -10.75501805	     13.56345930	     -8.15737534	    -11.74604439	    -62.23107782	    118.12022534	    -60.68762739	   -170.80056289	     11.04380402	      0.79381680	     18.72909878	     -9.07018641	    -27.13240875	     -9.87683318	    -28.94788063	      6.55759460	     62.45253359	     -7.66551912	     11.86861556	     41.13483245	     11.35386102	     19.09175501	    -10.00502003
      2.01000000	     -3.52939297	      4.06380674	     10.47173527	     -0.10235460	      1.02572040	      0.00686093	     14.10624972	    -12.92268845	     31.27483967	    -10.23881961	     12.86945901	     -8.04759027	    -12.40927632	    -62.89457478	    118.12244652	    -62.32497645	   -171.14006710	     11.55974610	      0.62386576	     18.47170568	     -8.65647821	    -26.74472980	    -10.52491599	    -29.51016266	      6.35378053	     62.23736147	     -8.30898773	     11.94995890	     43.09448619	     10.93709141	     19.06852298	    -10.24587124
      2.02000000	     -3.56223043	      4.13829515	     10.49998120	     -0.10277536	      1.02608029	      0.00711577	     13.96454536	    -13.40697800	     30.25060300	    -10.23167915	     11.56661108	     -7.40441883	    -13.15883180	    -63.59809022	    117.41817697	    -64.10158155	   -172.52908228	     12.67674572	     -0.40114374	     18.18009969	     -8.57077550	    -26.27490501	    -10.82789748	    -29.95458100	      6.06502989	     62.75856813	     -9.61488907	     11.10166218	     45.31964869	     10.01971726	     19.10041368	    -10.06400194
      2.03000000	     -3.55439252	      4.16222168	     10.49733252	     -0.10288461	      1.02633890	      0.00724332	     13.54464387	    -13.78052778	     29.00931913	    -10.25570595	     10.63277426	     -6.69348373	    -14.09485915	    -64.57594506	    117.00778179	    -65.74439150	   -173.99397549	     13.96470167	     -1.48639803	     17.81419159	     -8.25590590	    -25.68812489	    -11.29983462	    -30.31466699	      5.75105977	     62.94314573	    -10.65147259	     10.57776762	     47.41135999	      9.02843745	     18.94784995	     -9.77375196
      2.04000000	     -3.33839010	      4.07227589	     10.53580288	     -0.10315590	      1.02594902	      0.00754741	     13.30054328	    -13.36372891	     28.22472664	     -9.65359240	      9.94346173	     -6.62141700	    -14.76936779	    -65.22723334	    117.01848947	    -67.32367845	   -174.15738936	     14.52175778	     -1.65031079	     17.54196151	     -7.83140929	    -25.27712161	    -11.93249833	    -30.81394554	      5.52390765	     62.72165231	    -11.32296872	     10.84727762	     49.28329149	      8.71408577	     18.88162991	    -10.04244475
